 8      a8P          db         88888888ba   88  888b      88         db         
88    ,88'          d88b        88      "8b  ""  8888b     88        d88b        
88  ,88"           d8'`8b       88      ,8P      88 `8b    88       d8'`8b       
88,d88'           d8'  `8b      88aaaaaa8P'  88  88  `8b   88      d8'  `8b      
8888"88,         d8YaaaaY8b     88""""88'    88  88   `8b  88     d8YaaaaY8b     
88P   Y8b       d8""""""""8b    88    `8b    88  88    `8b 88    d8""""""""8b    
88     "88,    d8'        `8b   88     `8b   88  88     `8888   d8'        `8b   
88       Y8b  d8'          `8b  88      `8b  88  88      `888  d8'          `8b  
-------------------------------------------------------------------------------
                    -------------------------------------
         [ Through.A.Glass.Darkly.1961.DVDRip.x264.AC3-KARiNA.mkv ]            
                    -------------------------------------

[Synopsis]==================================                                                                

Through a Glass Darkly | Sweden | 1961 | Directed by Ingmar Bergman     
                                                     
Ingmar Bergman won his second Best Foreign Film Oscar for the moody family drama Through a Glass Darkly. It is the first of what came to be called his "chamber dramas," which positioned four characters in one place where they could interact like a string quartet. It has also been referred to as the first of his trilogy of faith, followed by Winter Light and The Silence, dealing with issues of God and love. Shot in black-and-white and running only 90 minutes long, the film opens with a quote from the book of Corinthians. Suffering from severe mental illness, Karin (Harriet Andersson) has just been released from a psychiatric hospital. She vacations for a summer on an island with her family to help speed up her recovery, but they can't offer the support that she needs. Her father, David (Gunnar Björnstrand), is a clinical and detached writer; her husband, Martin (Max Von Sydow), is a doctor unable to assist her illness; and her brother, Minus (Lars Passgård), is sexually coming of age and dealing with his own emotional problems. Karin's condition worsens and she thinks a spider is God. It has been argued that the script for Through a Glass Darkly was influenced by Charlotte Perkins Gilman's short story, The Yellow Wallpaper. 

[ IMdB: http://www.imdb.com/title/tt0055499 | Rating: 8.0 / 10 (4,366 votes) ]
                                     
[General]===================================
                                                                  
Complete name                    : Through.A.Glass.Darkly.1961.DVDRip.x264.AC3 KARiNA.mkv
Format                           : Matroska
File size                        : 1.50 GiB
Duration                         : 1h 29mn
Overall bit rate                 : 2 389 Kbps
Source                           : Criterion NTSC DVD9

[Video]=====================================

Format                           : AVC
Codec ID                         : V_MPEG4/ISO/AVC
Bit rate                         : 1 957 Kbps
Nominal bit rate                 : 2 000 Kbps
Width                            : 720 pixels
Height                           : 480 pixels
Display aspect ratio             : 4/3
Frame rate                       : 23.976 fps
Standard                         : NTSC
Resolution                       : 24 bits
Colorimetry                      : 4:2:0
Scan type                        : Progressive
Bits/(Pixel*Frame)               : 0.236
Stream size                      : 1.23 GiB (82%)
Title                            : Track 1
Writing library                  : x264 core 65

[Audio]=====================================                              

[] Track 1

Format                           : AC-3
Codec ID                         : A_AC3
Bit rate mode                    : Constant
Bit rate                         : 192 Kbps
Channel(s)                       : 1 channel
Channel positions                : C
Sampling rate                    : 48.0 KHz
Stream size                      : 123 MiB (8%)
Title                            : Track 1
Language                         : Swedish

[] Track 2 - English dub

Format                           : AC-3
Codec ID                         : A_AC3
Bit rate mode                    : Constant
Bit rate                         : 192 Kbps
Channel(s)                       : 1 channel
Channel positions                : C
Sampling rate                    : 48.0 KHz
Stream size                      : 123 MiB (8%)
Title                            : Track 2 - (Dub)
Language                         : English

[Subtitles]=================================

Format                           : UTF-8
Codec ID                         : S_TEXT/UTF8
Title                            : Track 1
Language                         : English

[Chapters]==================================

00:00:00.000                     : :Chapter 1
00:01:54.383                     : :Chapter 2
00:06:29.325                     : :Chapter 3
00:09:51.527                     : :Chapter 4
00:14:14.790                     : :Chapter 5
00:21:06.201                     : :Chapter 6
00:24:38.746                     : :Chapter 7
00:31:32.660                     : :Chapter 8
00:37:43.030                     : :Chapter 9
00:42:47.701                     : :Chapter 10
00:46:57.083                     : :Chapter 11
00:53:38.151                     : :Chapter 12
00:59:54.643                     : :Chapter 13
01:06:52.444                     : :Chapter 14
01:13:20.832                     : :Chapter 15
01:18:42.153                     : :Chapter 16
01:26:39.797                     : :Chapter 17
01:29:54.692                     : :Chapter 18

[KARiNA]===================================